<svg xmlns="http://www.w3.org/2000/svg"
xmlns:xlink="http://www.w3.org/1999/xlink"
aria-hidden="true"
role="img"
class="iconify iconify--logos"
width="31.88"
height="32"
preserveAspectRatio="xMidYMid meet"
viewBox="0 0 256 257">
  ...restante do código...

<defs><linearGradient id="IconifyId1813088fe1fbc01fb466" 
x1="0%" x2="57.636%" y1="7.652%" y2="78.411%">
<stop offset="0%" stop-color="#41D1FF">
</stop>

<stop offset="100%" stop-color="#BD34FE"></stop>
</linearGradient>

<linearGradient id="IconifyId1813088fe1fbc01fb467" 
x1="43.376%" x2="50.316%" y1="2.242%" y2="89.03%">
<stop offset="0%" stop-color="#FFEA83">
</stop>

<stop offset="8.333%" 
stop-color="#FFDD35"></stop>

<stop offset="100%" stop-color="#FFA800"></stop>

</linearGradient>
</defs>


  <!-- Vite logo (centro) -->
  <path fill="url(#IconifyId1813088fe1fbc01fb466)" 
    d="M255.153 37.938L134.897 252.976c-2.483 4.44-8.862 4.466-11.382.048L.875 37.958c-2.746-4.814 1.371-10.646 6.827-9.67l120.385 21.517a6.537 6.537 0 0 0 2.322-.004l117.867-21.483c5.438-.991 9.574 4.796 6.877 9.62Z">
  </path>
  <path fill="url(#IconifyId1813088fe1fbc01fb467)" 
    d="M185.432.063L96.44 17.501a3.268 3.268 0 0 0-2.634 3.014l-5.474 92.456a3.268 3.268 0 0 0 3.997 3.378l24.777-5.718c2.318-.535 4.413 1.507 3.936 3.838l-7.361 36.047c-.495 2.426 1.782 4.5 4.151 3.78l15.304-4.649c2.372-.72 4.652 1.36 4.15 3.788l-11.698 56.621c-.732 3.542 3.979 5.473 5.943 2.437l1.313-2.028l72.516-144.72c1.215-2.423-.88-5.186-3.54-4.672l-25.505 4.922c-2.396.462-4.435-1.77-3.759-4.114l16.646-57.705c.677-2.35-1.37-4.583-3.769-4.113Z">
  </path>

  <!-- Git logo (canto inferior direito) -->
  <g  transform="translate(218,128) scale(0.13)"> 
  <filter id="shadow" x="-20%" y="-20%" width="140%" height="140%">
  <feDropShadow dx="0" dy="2" stdDeviation="2" flood-color="#000" flood-opacity="0.2"/>
</filter>
    <rect width="256" height="256" rx="60" fill="#F05133"/>
    <path fill="#fff" d="M195.9 120.6l-60.5-60.5c-4.7-4.7-12.3-4.7-17 0l-13.7 13.7 17.1 17.1c5-1.7 10.7-0.6 14.7 3.4 4 4 5.1 9.7 3.4 14.7l16.5 16.5c5-1.7 10.7-0.6 14.7 3.4 5.6 5.6 5.6 14.6 0 20.2-5.6 5.6-14.6 5.6-20.2 0-4.2-4.2-5.2-10.4-3-15.6l-15.9-15.9v41.7c1.3 0.6 2.5 1.4 3.6 2.5 5.6 5.6 5.6 14.6 0 20.2-5.6 5.6-14.6 5.6-20.2 0-5.6-5.6-5.6-14.6 0-20.2 1.2-1.2 2.6-2.1 4.1-2.7v-41.5c-1.5-0.6-2.9-1.5-4.1-2.7-4-4-5.1-9.7-3.4-14.7l-17.1-17.1-36.7 36.7c-4.7 4.7-4.7 12.3 0 17l60.5 60.5c4.7 4.7 12.3 4.7 17 0l60.5-60.5c4.7-4.7 4.7-12.3 0-17z"/>
  </g>

  <!-- JavaScript logo (canto inferior esquerdo) -->
  <g transform="translate(164,218) scale(0.13)">
   <filter id="shadow" x="-20%" y="-20%" width="140%" height="140%">
  <feDropShadow dx="0" dy="2" stdDeviation="2" flood-color="#000" flood-opacity="0.2"/>
</filter>
    <rect width="256" height="256" rx="40" fill="#F7DF1E"/>
    <text x="50%" y="65%" text-anchor="middle" font-size="120" font-family="Arial, Helvetica, sans-serif" fill="#222" font-weight="bold">JS</text>
  </g>

  <!-- HTML5 logo (canto superior esquerdo) -->
  <g transform="translate(92,218) scale(0.13)">
  <filter id="shadow" x="-20%" y="-20%" width="140%" height="140%">
  <feDropShadow dx="0" dy="2" stdDeviation="2" flood-color="#000" flood-opacity="0.2"/>
</filter>
    <rect width="256" height="256" rx="40" fill="#fff"/>
    <path fill="#E44D26" d="M41 224L23 0h210l-18 224-87 24"/>
    <path fill="#F16529" d="M128 231l70-19 15-168H128"/>
    <path fill="#EBEBEB" d="M128 104H85l-3-32h46V41H56l1 13 7 80h64z"/>
    <path fill="#fff" d="M128 167.5l-.2.1-36.7-9.9-2.3-25.7H85l1.7 19.2 51.3 13.7.1-.1z"/>
    <path fill="#fff" d="M128 104v32h32.7l-3.1 34.7-29.6 8.1v14.2l51.3-13.7 6.9-77.3H128z"/>
  </g>

  <!-- CSS3 logo (canto superior direito) -->
  <g transform="translate(38,128) scale(0.13)">
  <filter id="shadow" x="-20%" y="-20%" width="140%" height="140%">
  <feDropShadow dx="0" dy="2" stdDeviation="2" flood-color="#000" flood-opacity="0.2"/>
</filter>
    <rect width="256" height="256" rx="40" fill="#fff"/>
    <path fill="#264DE4" d="M41 224L23 0h210l-18 224-87 24"/>
    <path fill="#2965F1" d="M128 231l70-19 15-168H128"/>
    <path fill="#EBEBEB" d="M128 104H85l-3-32h46V41H56l1 13 7 80h64z"/>
    <path fill="#fff" d="M128 167.5l-.2.1-36.7-9.9-2.3-25.7H85l1.7 19.2 51.3 13.7.1-.1z"/>
    <path fill="#fff" d="M128 104v32h32.7l-3.1 34.7-29.6 8.1v14.2l51.3-13.7 6.9-77.3H128z"/>
  </g>

  <!-- Node.js logo (topo central) -->
  <g transform="translate(92,38) scale(0.13)">
  <filter id="shadow" x="-20%" y="-20%" width="140%" height="140%">
  <feDropShadow dx="0" dy="2" stdDeviation="2" flood-color="#000" flood-opacity="0.2"/>
</filter>
    <ellipse cx="100" cy="100" rx="100" ry="100" fill="#8CC84B"/>
    <text x="50%" y="60%" text-anchor="middle" font-size="80" font-family="Arial, Helvetica, sans-serif" fill="#fff" font-weight="bold">Node</text>
  </g>

</svg>